HIERARCHY
ROOT hip
{
  OFFSET 0 90.174 2.4664
  CHANNELS 6 Xposition Yposition Zposition Zrotation Xrotation Yrotation
  JOINT abdomen
  {
    OFFSET 0 -1.186 -1.5018
    CHANNELS 6 Xposition Yposition Zposition Zrotation Xrotation Yrotation
    JOINT abdomen2
    {
      OFFSET 0 9.964 0.2134
      CHANNELS 6 Xposition Yposition Zposition Zrotation Xrotation Yrotation
      JOINT chest
      {
        OFFSET 0 13.134 -3.2573
        CHANNELS 6 Xposition Yposition Zposition Zrotation Xrotation Yrotation
        JOINT neck
        {
          OFFSET 0 20.686 -1.6905
          CHANNELS 6 Xposition Yposition Zposition Zrotation Xrotation Yrotation
          JOINT head
          {
            OFFSET 0 7.238 -0.1237
            CHANNELS 6 Xposition Yposition Zposition Zrotation Xrotation Yrotation
            End Site
            {
              OFFSET 0 0 0
            }
          }
        }
        JOINT lCollar
        {
          OFFSET 1.7069 20.075 5.0056
          CHANNELS 6 Xposition Yposition Zposition Zrotation Xrotation Yrotation
          JOINT lShldr
          {
            OFFSET 13.6458 -0.047 -4.849
            CHANNELS 6 Xposition Yposition Zposition Zrotation Xrotation Yrotation
            JOINT lForeArm
            {
              OFFSET 28.3255 -0.9759 2.2888
              CHANNELS 6 Xposition Yposition Zposition Zrotation Xrotation Yrotation
              JOINT lHand
              {
                OFFSET 22.1583 -0.53 10.8316
                CHANNELS 6 Xposition Yposition Zposition Zrotation Xrotation Yrotation
                JOINT lThumb1
                {
                  OFFSET 0.786 0.112 2.5817
                  CHANNELS 6 Xposition Yposition Zposition Zrotation Xrotation Yrotation
                  JOINT lThumb2
                  {
                    OFFSET 0.3601 -0.878 4.2331
                    CHANNELS 6 Xposition Yposition Zposition Zrotation Xrotation Yrotation
                    JOINT lThumb2_End
                    {
                      OFFSET 1.8127 -1.216 2.2227
                      CHANNELS 6 Xposition Yposition Zposition Zrotation Xrotation Yrotation
                      End Site
                      {
                        OFFSET 0.0181 -0.0122 0.0222
                      }
                    }
                  }
                }
                JOINT lCarpal1
                {
                  OFFSET 0.9571 1.114 1.7695
                  CHANNELS 6 Xposition Yposition Zposition Zrotation Xrotation Yrotation
                  JOINT lIndex1
                  {
                    OFFSET 4.1246 0.487 4.1451
                    CHANNELS 6 Xposition Yposition Zposition Zrotation Xrotation Yrotation
                    JOINT lIndex2
                    {
                      OFFSET 3.4052 -1.454 2.7682
                      CHANNELS 6 Xposition Yposition Zposition Zrotation Xrotation Yrotation
                      JOINT lIndex2_End
                      {
                        OFFSET 1.4531 -1.795 1.2713
                        CHANNELS 6 Xposition Yposition Zposition Zrotation Xrotation Yrotation
                        End Site
                        {
                          OFFSET 0.0145 -0.0179 0.0127
                        }
                      }
                    }
                  }
                  JOINT lMid1
                  {
                    OFFSET 5.6954 0.21 2.1184
                    CHANNELS 6 Xposition Yposition Zposition Zrotation Xrotation Yrotation
                    JOINT lMid2
                    {
                      OFFSET 3.9766 -1.54 2.3863
                      CHANNELS 6 Xposition Yposition Zposition Zrotation Xrotation Yrotation
                      JOINT lMid2_End
                      {
                        OFFSET 1.4042 -1.926 1.125
                        CHANNELS 6 Xposition Yposition Zposition Zrotation Xrotation Yrotation
                        End Site
                        {
                          OFFSET 0.014 -0.0193 0.0113
                        }
                      }
                    }
                  }
                }
                JOINT lCarpal2
                {
                  OFFSET 2.0956 0.66 -0.3894
                  CHANNELS 6 Xposition Yposition Zposition Zrotation Xrotation Yrotation
                  JOINT lRing1
                  {
                    OFFSET 5.0395 -0.09 2.4971
                    CHANNELS 6 Xposition Yposition Zposition Zrotation Xrotation Yrotation
                    JOINT lRing2
                    {
                      OFFSET 3.7921 -1.552 1.4806
                      CHANNELS 6 Xposition Yposition Zposition Zrotation Xrotation Yrotation
                      JOINT lRing2_End
                      {
                        OFFSET 1.4655 -1.808 0.9609
                        CHANNELS 6 Xposition Yposition Zposition Zrotation Xrotation Yrotation
                        End Site
                        {
                          OFFSET 0.0147 -0.0181 0.0096
                        }
                      }
                    }
                  }
                  JOINT lPinky1
                  {
                    OFFSET 4.9141 -1.269 0.3591
                    CHANNELS 6 Xposition Yposition Zposition Zrotation Xrotation Yrotation
                    JOINT lPinky2
                    {
                      OFFSET 3.1477 -1.685 0.8462
                      CHANNELS 6 Xposition Yposition Zposition Zrotation Xrotation Yrotation
                      JOINT lPinky2_End
                      {
                        OFFSET 0.8055 -1.585 0.7955
                        CHANNELS 6 Xposition Yposition Zposition Zrotation Xrotation Yrotation
                        End Site
                        {
                          OFFSET 0.0081 -0.0158 0.008
                        }
                      }
                    }
                  }
                }
              }
            }
          }
        }
        JOINT rCollar
        {
          OFFSET -1.7069 20.075 5.0056
          CHANNELS 6 Xposition Yposition Zposition Zrotation Xrotation Yrotation
          JOINT rShldr
          {
            OFFSET -13.6458 -0.047 -4.849
            CHANNELS 6 Xposition Yposition Zposition Zrotation Xrotation Yrotation
            JOINT rForeArm
            {
              OFFSET -28.3255 -0.9759 2.2888
              CHANNELS 6 Xposition Yposition Zposition Zrotation Xrotation Yrotation
              JOINT rHand
              {
                OFFSET -22.1583 -0.53 10.8316
                CHANNELS 6 Xposition Yposition Zposition Zrotation Xrotation Yrotation
                JOINT rThumb1
                {
                  OFFSET -0.786 0.112 2.5817
                  CHANNELS 6 Xposition Yposition Zposition Zrotation Xrotation Yrotation
                  JOINT rThumb2
                  {
                    OFFSET -0.3601 -0.878 4.2331
                    CHANNELS 6 Xposition Yposition Zposition Zrotation Xrotation Yrotation
                    JOINT rThumb2_End
                    {
                      OFFSET -1.8127 -1.216 2.2227
                      CHANNELS 6 Xposition Yposition Zposition Zrotation Xrotation Yrotation
                      End Site
                      {
                        OFFSET -0.0181 -0.0122 0.0222
                      }
                    }
                  }
                }
                JOINT rCarpal1
                {
                  OFFSET -0.9571 1.114 1.7695
                  CHANNELS 6 Xposition Yposition Zposition Zrotation Xrotation Yrotation
                  JOINT rIndex1
                  {
                    OFFSET -4.1246 0.487 4.1451
                    CHANNELS 6 Xposition Yposition Zposition Zrotation Xrotation Yrotation
                    JOINT rIndex2
                    {
                      OFFSET -3.4052 -1.454 2.7682
                      CHANNELS 6 Xposition Yposition Zposition Zrotation Xrotation Yrotation
                      JOINT rIndex2_End
                      {
                        OFFSET -1.4531 -1.795 1.2713
                        CHANNELS 6 Xposition Yposition Zposition Zrotation Xrotation Yrotation
                        End Site
                        {
                          OFFSET -0.0145 -0.018 0.0127
                        }
                      }
                    }
                  }
                  JOINT rMid1
                  {
                    OFFSET -5.6954 0.21 2.1184
                    CHANNELS 6 Xposition Yposition Zposition Zrotation Xrotation Yrotation
                    JOINT rMid2
                    {
                      OFFSET -3.9766 -1.54 2.3863
                      CHANNELS 6 Xposition Yposition Zposition Zrotation Xrotation Yrotation
                      JOINT rMid2_End
                      {
                        OFFSET -1.4042 -1.926 1.125
                        CHANNELS 6 Xposition Yposition Zposition Zrotation Xrotation Yrotation
                        End Site
                        {
                          OFFSET -0.014 -0.0193 0.0113
                        }
                      }
                    }
                  }
                }
                JOINT rCarpal2
                {
                  OFFSET -2.0956 0.66 -0.3894
                  CHANNELS 6 Xposition Yposition Zposition Zrotation Xrotation Yrotation
                  JOINT rRing1
                  {
                    OFFSET -5.0395 -0.09 2.4971
                    CHANNELS 6 Xposition Yposition Zposition Zrotation Xrotation Yrotation
                    JOINT rRing2
                    {
                      OFFSET -3.7921 -1.552 1.4806
                      CHANNELS 6 Xposition Yposition Zposition Zrotation Xrotation Yrotation
                      JOINT rRing2_End
                      {
                        OFFSET -1.4655 -1.808 0.9609
                        CHANNELS 6 Xposition Yposition Zposition Zrotation Xrotation Yrotation
                        End Site
                        {
                          OFFSET -0.0147 -0.0181 0.0096
                        }
                      }
                    }
                  }
                  JOINT rPinky1
                  {
                    OFFSET -4.9141 -1.269 0.3592
                    CHANNELS 6 Xposition Yposition Zposition Zrotation Xrotation Yrotation
                    JOINT rPinky2
                    {
                      OFFSET -3.1477 -1.685 0.8462
                      CHANNELS 6 Xposition Yposition Zposition Zrotation Xrotation Yrotation
                      JOINT rPinky2_End
                      {
                        OFFSET -0.8055 -1.585 0.7955
                        CHANNELS 6 Xposition Yposition Zposition Zrotation Xrotation Yrotation
                        End Site
                        {
                          OFFSET -0.0081 -0.0158 0.008
                        }
                      }
                    }
                  }
                }
              }
            }
          }
        }
      }
    }
  }
  JOINT lThigh
  {
    OFFSET 8.367 -8.2066 0.5982
    CHANNELS 6 Xposition Yposition Zposition Zrotation Xrotation Yrotation
    JOINT lShin
    {
      OFFSET 2.1923 -43.463 -0.4932
      CHANNELS 6 Xposition Yposition Zposition Zrotation Xrotation Yrotation
      JOINT lFoot
      {
        OFFSET 0.7333 -45.8593 -2.6451
        CHANNELS 6 Xposition Yposition Zposition Zrotation Xrotation Yrotation
        End Site
        {
          OFFSET 2.6618 -4.2699 12.3931
        }
      }
    }
  }
  JOINT rThigh
  {
    OFFSET -8.367 -8.2066 0.5982
    CHANNELS 6 Xposition Yposition Zposition Zrotation Xrotation Yrotation
    JOINT rShin
    {
      OFFSET -2.1923 -43.463 -0.4931
      CHANNELS 6 Xposition Yposition Zposition Zrotation Xrotation Yrotation
      JOINT rFoot
      {
        OFFSET -0.7333 -45.8593 -2.6451
        CHANNELS 6 Xposition Yposition Zposition Zrotation Xrotation Yrotation
        End Site
        {
          OFFSET -2.6618 -4.2699 12.3931
        }
      }
    }
  }
}
MOTION
Frames:	4
Frame Time:	0.0333333
23.5155 7.58247 41.6174 -49.6974 61.9718 46.144 1.77636e-015 -1.186 -1.5018 -1.37452 3.30683 0.217976 -3.55271e-015 9.964 0.2134 -2.76858 6.60742 0.516777 0 13.134 -3.2573 -2.76858 6.60743 0.516782 7.10543e-015 20.686 -1.6905 0.000150929 -24.0064 7.62543e-005 -7.10543e-015 7.238 -0.1237 -2.89072 2.56133 -27.9424 1.7069 20.075 5.0056 -31.4896 13.2527 6.89074 13.6458 -0.047 -4.849 -47.1995 -42.5267 -28.5554 28.3255 -0.9759 2.2888 42.5477 -37.1405 -96.9667 22.1583 -0.53 10.8316 40.3089 -6.55858 -36.9602 0.786 0.112 2.5817 2.82132e-007 -3.13154e-007 6.75471e-008 0.3601 -0.878 4.2331 -1.65521e-032 1.19271e-015 7.95139e-016 1.8127 -1.216 2.2227 2.82132e-007 -3.13154e-007 6.75471e-008 0.9571 1.114 1.7695 8.27607e-033 -5.96354e-016 7.95139e-016 4.1246 0.487 4.1451 2.82132e-007 -3.13154e-007 6.75471e-008 3.4052 -1.454 2.7682 1.93108e-032 1.39149e-015 -7.95139e-016 1.4531 -1.795 1.2713 2.82132e-007 -3.13154e-007 6.75471e-008 5.6954 0.21 2.1184 2.82132e-007 -3.13154e-007 6.75471e-008 3.9766 -1.54 2.3863 1.93108e-032 1.39149e-015 -7.95139e-016 1.4042 -1.926 1.125 2.82132e-007 -3.13154e-007 6.75471e-008 2.0956 0.66 -0.3894 8.27607e-033 -5.96354e-016 7.95139e-016 5.0395 -0.09 2.4971 2.82132e-007 -3.13154e-007 6.75471e-008 3.7921 -1.552 1.4806 1.93108e-032 1.39149e-015 -7.95139e-016 1.4655 -1.808 0.9609 2.82132e-007 -3.13154e-007 6.75471e-008 4.9141 -1.269 0.3591 2.82132e-007 -3.13154e-007 6.75471e-008 3.1477 -1.685 0.8462 1.93108e-032 1.39149e-015 -7.95139e-016 0.8055 -1.585 0.7955 2.82132e-007 -3.13154e-007 6.75471e-008 -1.7069 20.075 5.0056 19.9863 14.0166 -1.67518 -13.6458 -0.047 -4.849 57.485 -40.7521 46.3191 -28.3255 -0.9759 2.2888 -49.1922 -26.4524 74.5617 -22.1583 -0.53 10.8316 17.6682 -19.951 5.26979 -0.786 0.112 2.5817 3.18055e-015 -2.78299e-015 -0 -0.3601 -0.878 4.2331 -0 -1.59028e-015 -0 -1.8127 -1.216 2.2227 -0 -2.38542e-015 -0 -0.9571 1.114 1.7695 3.18055e-015 0 -7.95139e-016 -4.1246 0.487 4.1451 6.36111e-015 -1.51076e-014 4.77083e-015 -3.4052 -1.454 2.7682 3.86217e-032 -2.78299e-015 7.95139e-016 -1.4531 -1.795 1.2713 -0 -2.78299e-015 -0 -5.6954 0.21 2.1184 6.36111e-015 -1.51076e-014 4.77083e-015 -3.9766 -1.54 2.3863 3.86217e-032 -2.78299e-015 7.95139e-016 -1.4042 -1.926 1.125 -0 -2.78299e-015 -0 -2.0956 0.66 -0.3894 3.18055e-015 0 -7.95139e-016 -5.0395 -0.09 2.4971 6.36111e-015 -1.51076e-014 4.77083e-015 -3.7921 -1.552 1.4806 3.86217e-032 -2.78299e-015 7.95139e-016 -1.4655 -1.808 0.9609 -0 -2.78299e-015 -0 -4.9141 -1.269 0.3592 6.36111e-015 -1.51076e-014 4.77083e-015 -3.1477 -1.685 0.8462 3.86217e-032 -2.78299e-015 7.95139e-016 -0.8055 -1.585 0.7955 -0 -2.78299e-015 -0 8.367 -8.2066 0.5982 3.31094 8.08499 13.926 2.1923 -43.463 -0.4932 -4.06589 2.33157 31.6217 0.7333 -45.8593 -2.6451 16.361 53.9176 -17.918 -8.367 -8.2066 0.5982 -99.9471 -27.5182 -88.0353 -2.1923 -43.463 -0.4931 -173.71 78.0826 168.616 -0.7333 -45.8593 -2.6451 -9.38143 20.9308 -1.42552 
23.4508 7.61374 41.4954 -49.6974 61.9718 46.144 -1.77636e-015 -1.186 -1.5018 -1.37452 3.30683 0.217976 3.55271e-015 9.964 0.2134 -2.76858 6.60742 0.516777 -3.55271e-015 13.134 -3.2573 -2.76858 6.60743 0.516782 -7.10543e-015 20.686 -1.6905 8.35936e-005 -24.0063 4.23218e-005 0 7.238 -0.1237 -2.91271 2.39288 -27.7602 1.7069 20.075 5.0056 -31.0283 12.9944 6.83875 13.6458 -0.047 -4.849 -47.1995 -42.5267 -28.5554 28.3255 -0.9759 2.2888 42.5477 -37.1405 -96.9667 22.1583 -0.53 10.8316 40.0931 -6.41642 -36.5794 0.786 0.112 2.5817 2.41569e-007 9.78587e-007 -4.71636e-006 0.3601 -0.878 4.2331 6.88568e-007 1.75442e-006 -1.26176e-007 1.8127 -1.216 2.2227 2.41569e-007 9.78587e-007 -4.71636e-006 0.9571 1.114 1.7695 5.51738e-033 3.97569e-016 -7.95139e-016 4.1246 0.487 4.1451 2.41569e-007 9.78587e-007 -4.71636e-006 3.4052 -1.454 2.7682 6.88568e-007 1.75442e-006 -1.26176e-007 1.4531 -1.795 1.2713 2.41569e-007 9.78587e-007 -4.71636e-006 5.6954 0.21 2.1184 2.41569e-007 9.78587e-007 -4.71636e-006 3.9766 -1.54 2.3863 6.88568e-007 1.75442e-006 -1.26176e-007 1.4042 -1.926 1.125 2.41569e-007 9.78587e-007 -4.71636e-006 2.0956 0.66 -0.3894 5.51738e-033 3.97569e-016 -7.95139e-016 5.0395 -0.09 2.4971 2.41569e-007 9.78587e-007 -4.71636e-006 3.7921 -1.552 1.4806 6.88568e-007 1.75442e-006 -1.26176e-007 1.4655 -1.808 0.9609 2.41569e-007 9.78587e-007 -4.71636e-006 4.9141 -1.269 0.3591 2.41569e-007 9.78587e-007 -4.71636e-006 3.1477 -1.685 0.8462 6.88568e-007 1.75442e-006 -1.26176e-007 0.8055 -1.585 0.7955 2.41569e-007 9.78587e-007 -4.71636e-006 -1.7069 20.075 5.0056 19.6887 13.7344 -1.69361 -13.6458 -0.047 -4.849 57.485 -40.752 46.3191 -28.3255 -0.9759 2.2888 -49.1922 -26.4524 74.5617 -22.1583 -0.53 10.8316 17.7875 -20.1489 5.03156 -0.786 0.112 2.5817 6.36111e-015 7.95139e-016 -0 -0.3601 -0.878 4.2331 -2.33396e-006 -1.34603e-007 6.25489e-008 -1.8127 -1.216 2.2227 1.34603e-007 -2.33396e-006 6.01676e-007 -0.9571 1.114 1.7695 6.36111e-015 7.95139e-016 -0 -4.1246 0.487 4.1451 6.36111e-015 -1.11319e-014 3.97569e-015 -3.4052 -1.454 2.7682 -2.33396e-006 -1.34603e-007 6.25489e-008 -1.4531 -1.795 1.2713 1.34603e-007 -2.33396e-006 6.01676e-007 -5.6954 0.21 2.1184 6.36111e-015 -1.11319e-014 3.97569e-015 -3.9766 -1.54 2.3863 -2.33396e-006 -1.34603e-007 6.25489e-008 -1.4042 -1.926 1.125 1.34603e-007 -2.33396e-006 6.01676e-007 -2.0956 0.66 -0.3894 6.36111e-015 7.95139e-016 -0 -5.0395 -0.09 2.4971 6.36111e-015 -1.11319e-014 3.97569e-015 -3.7921 -1.552 1.4806 -2.33396e-006 -1.34603e-007 6.25489e-008 -1.4655 -1.808 0.9609 1.34603e-007 -2.33396e-006 6.01676e-007 -4.9141 -1.269 0.3592 6.36111e-015 -1.11319e-014 3.97569e-015 -3.1477 -1.685 0.8462 -2.33396e-006 -1.34603e-007 6.25489e-008 -0.8055 -1.585 0.7955 1.34603e-007 -2.33396e-006 6.01676e-007 8.367 -8.2066 0.5982 3.43153 7.76657 13.9416 2.1923 -43.463 -0.4932 -4.12087 2.91946 31.624 0.7333 -45.8593 -2.6451 16.1489 53.6726 -17.823 -8.367 -8.2066 0.5982 -99.9469 -27.5197 -88.0374 -2.1923 -43.463 -0.4931 -173.709 78.0825 168.614 -0.7333 -45.8593 -2.6451 -9.38297 20.9306 -1.42609 
23.386 7.64499 41.3733 -49.6974 61.9718 46.144 1.77636e-015 -1.186 -1.5018 -1.37452 3.30683 0.217976 -5.32907e-015 9.964 0.2134 -2.76858 6.60742 0.516777 0 13.134 -3.2573 -2.76858 6.60743 0.516782 0 20.686 -1.6905 8.35936e-005 -24.0063 4.23218e-005 0 7.238 -0.1237 -2.93415 2.22432 -27.5781 1.7069 20.075 5.0056 -30.5672 12.7355 6.7889 13.6458 -0.047 -4.849 -47.1995 -42.5267 -28.5554 28.3255 -0.9759 2.2888 42.5478 -37.1405 -96.9666 22.1583 -0.53 10.8316 39.8762 -6.27559 -36.1978 0.786 0.112 2.5817 3.18055e-015 3.97569e-015 -3.18055e-015 0.3601 -0.878 4.2331 -1.59028e-015 -1.98785e-016 -2.38542e-015 1.8127 -1.216 2.2227 -2.81921e-007 3.13156e-007 -6.84096e-008 0.9571 1.114 1.7695 3.18055e-015 2.38542e-015 -2.38542e-015 4.1246 0.487 4.1451 -3.18055e-015 -8.15017e-015 4.77083e-015 3.4052 -1.454 2.7682 1.59028e-015 1.98785e-015 -2.38542e-015 1.4531 -1.795 1.2713 -2.81921e-007 3.13156e-007 -6.84096e-008 5.6954 0.21 2.1184 -3.18055e-015 -8.15017e-015 4.77083e-015 3.9766 -1.54 2.3863 1.59028e-015 1.98785e-015 -2.38542e-015 1.4042 -1.926 1.125 -2.81921e-007 3.13156e-007 -6.84096e-008 2.0956 0.66 -0.3894 3.18055e-015 2.38542e-015 -2.38542e-015 5.0395 -0.09 2.4971 -3.18055e-015 -8.15017e-015 4.77083e-015 3.7921 -1.552 1.4806 1.59028e-015 1.98785e-015 -2.38542e-015 1.4655 -1.808 0.9609 -2.81921e-007 3.13156e-007 -6.84096e-008 4.9141 -1.269 0.3591 -3.18055e-015 -8.15017e-015 4.77083e-015 3.1477 -1.685 0.8462 1.59028e-015 1.98785e-015 -2.38542e-015 0.8055 -1.585 0.7955 -2.81921e-007 3.13156e-007 -6.84096e-008 -1.7069 20.075 5.0056 19.3912 13.4522 -1.71353 -13.6458 -0.047 -4.849 57.485 -40.752 46.3191 -28.3255 -0.9759 2.2888 -49.1922 -26.4524 74.5617 -22.1583 -0.53 10.8316 17.9062 -20.3473 4.7934 -0.786 0.112 2.5817 9.54166e-015 1.59028e-015 -0 -0.3601 -0.878 4.2331 -3.18055e-015 0 -7.95139e-016 -1.8127 -1.216 2.2227 -3.31043e-032 1.19271e-015 1.59028e-015 -0.9571 1.114 1.7695 9.54166e-015 1.19271e-015 -7.95139e-016 -4.1246 0.487 4.1451 3.18055e-015 1.19271e-015 7.95139e-016 -3.4052 -1.454 2.7682 -1.10348e-032 3.97569e-016 1.59028e-015 -1.4531 -1.795 1.2713 -1.65521e-032 3.97569e-016 2.38542e-015 -5.6954 0.21 2.1184 3.18055e-015 1.19271e-015 7.95139e-016 -3.9766 -1.54 2.3863 -1.10348e-032 3.97569e-016 1.59028e-015 -1.4042 -1.926 1.125 -1.65521e-032 3.97569e-016 2.38542e-015 -2.0956 0.66 -0.3894 9.54166e-015 1.19271e-015 -7.95139e-016 -5.0395 -0.09 2.4971 3.18055e-015 1.19271e-015 7.95139e-016 -3.7921 -1.552 1.4806 -1.10348e-032 3.97569e-016 1.59028e-015 -1.4655 -1.808 0.9609 -1.65521e-032 3.97569e-016 2.38542e-015 -4.9141 -1.269 0.3592 3.18055e-015 1.19271e-015 7.95139e-016 -3.1477 -1.685 0.8462 -1.10348e-032 3.97569e-016 1.59028e-015 -0.8055 -1.585 0.7955 -1.65521e-032 3.97569e-016 2.38542e-015 8.367 -8.2066 0.5982 3.55183 7.44873 13.958 2.1923 -43.463 -0.4932 -4.17574 3.50698 31.6269 0.7333 -45.8593 -2.6451 15.9393 53.4276 -17.7305 -8.367 -8.2066 0.5982 -99.9468 -27.5211 -88.0395 -2.1923 -43.463 -0.4931 -173.709 78.0823 168.612 -0.7333 -45.8593 -2.6451 -9.38454 20.9303 -1.42665 
23.3213 7.67622 41.2512 -49.6974 61.9718 46.144 -1.77636e-015 -1.186 -1.5018 -1.37452 3.30683 0.217975 0 9.964 0.2134 -2.76858 6.60742 0.516778 -3.55271e-015 13.134 -3.2573 -2.76859 6.60742 0.516782 -3.55271e-015 20.686 -1.6905 0.000178251 -24.0068 6.67838e-005 -7.10543e-015 7.238 -0.1237 -2.95507 2.0556 -27.396 1.7069 20.075 5.0056 -30.1063 12.4759 6.74119 13.6458 -0.047 -4.849 -47.1995 -42.5267 -28.5554 28.3255 -0.9759 2.2888 42.5477 -37.1405 -96.9667 22.1583 -0.53 10.8316 39.6582 -6.13608 -35.8154 0.786 0.112 2.5817 -2.4823e-008 -2.0952e-006 -7.8646e-007 0.3601 -0.878 4.2331 8.45442e-007 -9.39473e-007 2.06525e-007 1.8127 -1.216 2.2227 1.71571e-006 2.1625e-007 1.19951e-006 0.9571 1.114 1.7695 1.59028e-015 -1.39149e-015 -0 4.1246 0.487 4.1451 -2.4823e-008 -2.0952e-006 -7.8646e-007 3.4052 -1.454 2.7682 8.45442e-007 -9.39473e-007 2.06525e-007 1.4531 -1.795 1.2713 1.71571e-006 2.1625e-007 1.19951e-006 5.6954 0.21 2.1184 -2.4823e-008 -2.0952e-006 -7.8646e-007 3.9766 -1.54 2.3863 8.45442e-007 -9.39473e-007 2.06525e-007 1.4042 -1.926 1.125 1.71571e-006 2.1625e-007 1.19951e-006 2.0956 0.66 -0.3894 1.59028e-015 -1.39149e-015 -0 5.0395 -0.09 2.4971 -2.4823e-008 -2.0952e-006 -7.8646e-007 3.7921 -1.552 1.4806 8.45442e-007 -9.39473e-007 2.06525e-007 1.4655 -1.808 0.9609 1.71571e-006 2.1625e-007 1.19951e-006 4.9141 -1.269 0.3591 -2.4823e-008 -2.0952e-006 -7.8646e-007 3.1477 -1.685 0.8462 8.45442e-007 -9.39473e-007 2.06525e-007 0.8055 -1.585 0.7955 1.71571e-006 2.1625e-007 1.19951e-006 -1.7069 20.075 5.0056 19.0938 13.1698 -1.73495 -13.6458 -0.047 -4.849 57.485 -40.7521 46.3191 -28.3255 -0.9759 2.2888 -49.1922 -26.4524 74.5617 -22.1583 -0.53 10.8316 18.0242 -20.5463 4.55524 -0.786 0.112 2.5817 -6.36111e-015 -1.59028e-015 -7.95139e-016 -0.3601 -0.878 4.2331 -3.18055e-015 -1.59028e-015 -0 -1.8127 -1.216 2.2227 -3.18055e-015 -1.98785e-015 -2.38542e-015 -0.9571 1.114 1.7695 -3.18055e-015 3.97569e-016 -0 -4.1246 0.487 4.1451 -3.18055e-015 -1.31198e-014 6.36111e-015 -3.4052 -1.454 2.7682 -3.18055e-015 -2.38542e-015 -7.95139e-016 -1.4531 -1.795 1.2713 -3.18055e-015 -1.98785e-015 -1.59028e-015 -5.6954 0.21 2.1184 -3.18055e-015 -1.31198e-014 6.36111e-015 -3.9766 -1.54 2.3863 -3.18055e-015 -2.38542e-015 -7.95139e-016 -1.4042 -1.926 1.125 -3.18055e-015 -1.98785e-015 -1.59028e-015 -2.0956 0.66 -0.3894 -3.18055e-015 3.97569e-016 -0 -5.0395 -0.09 2.4971 -3.18055e-015 -1.31198e-014 6.36111e-015 -3.7921 -1.552 1.4806 -3.18055e-015 -2.38542e-015 -7.95139e-016 -1.4655 -1.808 0.9609 -3.18055e-015 -1.98785e-015 -1.59028e-015 -4.9141 -1.269 0.3592 -3.18055e-015 -1.31198e-014 6.36111e-015 -3.1477 -1.685 0.8462 -3.18055e-015 -2.38542e-015 -7.95139e-016 -0.8055 -1.585 0.7955 -3.18055e-015 -1.98785e-015 -1.59028e-015 8.367 -8.2066 0.5982 3.6715 7.13188 13.9751 2.1923 -43.463 -0.4932 -4.23025 4.09262 31.6307 0.7333 -45.8593 -2.6451 15.7332 53.1837 -17.6411 -8.367 -8.2066 0.5982 -99.9467 -27.5225 -88.0416 -2.1923 -43.463 -0.4931 -173.709 78.0822 168.611 -0.7333 -45.8593 -2.6451 -9.38608 20.9301 -1.4272 
